<svg height="1518" width="720" xmlns="http://www.w3.org/2000/svg">
<rect height="1518" fill="#555" width="720"></rect>
<text fill="#7f7" font-family="Courier New" font-size="12" xml:space="preserve">
<tspan x="10" y="26">└─┬ node-dev@3.1.3 </tspan>
<tspan x="10" y="42">  ├─┬ dateformat@1.0.12 </tspan>
<tspan x="10" y="58">  │ ├── get-stdin@4.0.1 </tspan>
<tspan x="10" y="74">  │ └─┬ meow@3.7.0 </tspan>
<tspan x="10" y="90">  │   ├─┬ camelcase-keys@2.1.0 </tspan>
<tspan x="10" y="106">  │   │ └── camelcase@2.1.1 </tspan>
<tspan x="10" y="122">  │   ├── decamelize@1.2.0 </tspan>
<tspan x="10" y="138">  │   ├─┬ loud-rejection@1.6.0 </tspan>
<tspan x="10" y="154">  │   │ ├─┬ currently-unhandled@0.4.1 </tspan>
<tspan x="10" y="170">  │   │ │ └── array-find-index@1.0.2 </tspan>
<tspan x="10" y="186">  │   │ └── signal-exit@3.0.2 </tspan>
<tspan x="10" y="202">  │   ├── map-obj@1.0.1 </tspan>
<tspan x="10" y="218">  │   ├─┬ normalize-package-data@2.3.6 </tspan>
<tspan x="10" y="234">  │   │ ├── hosted-git-info@2.4.1 </tspan>
<tspan x="10" y="250">  │   │ ├─┬ is-builtin-module@1.0.0 </tspan>
<tspan x="10" y="266">  │   │ │ └── builtin-modules@1.1.1 </tspan>
<tspan x="10" y="282">  │   │ └─┬ validate-npm-package-license@3.0.1 </tspan>
<tspan x="10" y="298">  │   │   ├─┬ spdx-correct@1.0.2 </tspan>
<tspan x="10" y="314">  │   │   │ └── spdx-license-ids@1.2.2 </tspan>
<tspan x="10" y="330">  │   │   └── spdx-expression-parse@1.0.4 </tspan>
<tspan x="10" y="346">  │   ├── object-assign@4.1.1 </tspan>
<tspan x="10" y="362">  │   ├─┬ read-pkg-up@1.0.1 </tspan>
<tspan x="10" y="378">  │   │ ├─┬ find-up@1.1.2 </tspan>
<tspan x="10" y="394">  │   │ │ ├── path-exists@2.1.0 </tspan>
<tspan x="10" y="410">  │   │ │ └─┬ pinkie-promise@2.0.1 </tspan>
<tspan x="10" y="426">  │   │ │   └── pinkie@2.0.4 </tspan>
<tspan x="10" y="442">  │   │ └─┬ read-pkg@1.1.0 </tspan>
<tspan x="10" y="458">  │   │   ├─┬ load-json-file@1.1.0 </tspan>
<tspan x="10" y="474">  │   │   │ ├── graceful-fs@4.1.11 </tspan>
<tspan x="10" y="490">  │   │   │ ├─┬ parse-json@2.2.0 </tspan>
<tspan x="10" y="506">  │   │   │ │ └─┬ error-ex@1.3.1 </tspan>
<tspan x="10" y="522">  │   │   │ │   └── is-arrayish@0.2.1 </tspan>
<tspan x="10" y="538">  │   │   │ ├── pify@2.3.0 </tspan>
<tspan x="10" y="554">  │   │   │ └─┬ strip-bom@2.0.0 </tspan>
<tspan x="10" y="570">  │   │   │   └── is-utf8@0.2.1 </tspan>
<tspan x="10" y="586">  │   │   └── path-type@1.1.0 </tspan>
<tspan x="10" y="602">  │   ├─┬ redent@1.0.0 </tspan>
<tspan x="10" y="618">  │   │ ├─┬ indent-string@2.1.0 </tspan>
<tspan x="10" y="634">  │   │ │ └─┬ repeating@2.0.1 </tspan>
<tspan x="10" y="650">  │   │ │   └─┬ is-finite@1.0.2 </tspan>
<tspan x="10" y="666">  │   │ │     └── number-is-nan@1.0.1 </tspan>
<tspan x="10" y="682">  │   │ └── strip-indent@1.0.1 </tspan>
<tspan x="10" y="698">  │   └── trim-newlines@1.0.0 </tspan>
<tspan x="10" y="714">  ├─┬ dynamic-dedupe@0.2.0 </tspan>
<tspan x="10" y="730">  │ └─┬ xtend@2.0.6 </tspan>
<tspan x="10" y="746">  │   ├── is-object@0.1.2 </tspan>
<tspan x="10" y="762">  │   └─┬ object-keys@0.2.0 </tspan>
<tspan x="10" y="778">  │     ├── foreach@2.0.5 </tspan>
<tspan x="10" y="794">  │     ├── indexof@0.0.1 </tspan>
<tspan x="10" y="810">  │     └── is@0.2.7 </tspan>
<tspan x="10" y="826">  ├─┬ filewatcher@3.0.1 </tspan>
<tspan x="10" y="842">  │ └─┬ debounce@1.0.0 </tspan>
<tspan x="10" y="858">  │   └── date-now@1.0.1 </tspan>
<tspan x="10" y="874">  ├── minimist@1.2.0 </tspan>
<tspan x="10" y="890">  ├─┬ node-notifier@4.6.1 </tspan>
<tspan x="10" y="906">  │ ├─┬ cli-usage@0.1.4 </tspan>
<tspan x="10" y="922">  │ │ ├── marked@0.3.6 </tspan>
<tspan x="10" y="938">  │ │ └─┬ marked-terminal@1.7.0 </tspan>
<tspan x="10" y="954">  │ │   ├─┬ cardinal@1.0.0 </tspan>
<tspan x="10" y="970">  │ │   │ ├── ansicolors@0.2.1 </tspan>
<tspan x="10" y="986">  │ │   │ └─┬ redeyed@1.0.1 </tspan>
<tspan x="10" y="1002">  │ │   │   └── esprima@3.0.0 </tspan>
<tspan x="10" y="1018">  │ │   ├─┬ chalk@1.1.3 </tspan>
<tspan x="10" y="1034">  │ │   │ ├── ansi-styles@2.2.1 </tspan>
<tspan x="10" y="1050">  │ │   │ ├── escape-string-regexp@1.0.5 </tspan>
<tspan x="10" y="1066">  │ │   │ ├─┬ has-ansi@2.0.0 </tspan>
<tspan x="10" y="1082">  │ │   │ │ └── ansi-regex@2.1.1 </tspan>
<tspan x="10" y="1098">  │ │   │ ├── strip-ansi@3.0.1 </tspan>
<tspan x="10" y="1114">  │ │   │ └── supports-color@2.0.0 </tspan>
<tspan x="10" y="1130">  │ │   ├─┬ cli-table@0.3.1 </tspan>
<tspan x="10" y="1146">  │ │   │ └── colors@1.0.3 </tspan>
<tspan x="10" y="1162">  │ │   ├── lodash.assign@4.2.0 </tspan>
<tspan x="10" y="1178">  │ │   └─┬ node-emoji@1.5.1 </tspan>
<tspan x="10" y="1194">  │ │     └── string.prototype.codepointat@0.2.0 </tspan>
<tspan x="10" y="1210">  │ ├── growly@1.3.0 </tspan>
<tspan x="10" y="1226">  │ ├─┬ lodash.clonedeep@3.0.2 </tspan>
<tspan x="10" y="1242">  │ │ ├─┬ lodash._baseclone@3.3.0 </tspan>
<tspan x="10" y="1258">  │ │ │ ├── lodash._arraycopy@3.0.0 </tspan>
<tspan x="10" y="1274">  │ │ │ ├── lodash._arrayeach@3.0.0 </tspan>
<tspan x="10" y="1290">  │ │ │ ├─┬ lodash._baseassign@3.2.0 </tspan>
<tspan x="10" y="1306">  │ │ │ │ └── lodash._basecopy@3.0.1 </tspan>
<tspan x="10" y="1322">  │ │ │ ├── lodash._basefor@3.0.3 </tspan>
<tspan x="10" y="1338">  │ │ │ ├── lodash.isarray@3.0.4 </tspan>
<tspan x="10" y="1354">  │ │ │ └─┬ lodash.keys@3.1.2 </tspan>
<tspan x="10" y="1370">  │ │ │   ├── lodash._getnative@3.9.1 </tspan>
<tspan x="10" y="1386">  │ │ │   └── lodash.isarguments@3.1.0 </tspan>
<tspan x="10" y="1402">  │ │ └── lodash._bindcallback@3.0.1 </tspan>
<tspan x="10" y="1418">  │ ├── semver@5.3.0 </tspan>
<tspan x="10" y="1434">  │ ├── shellwords@0.1.0 </tspan>
<tspan x="10" y="1450">  │ └─┬ which@1.2.14 </tspan>
<tspan x="10" y="1466">  │   └── isexe@2.0.0 </tspan>
<tspan x="10" y="1482">  └─┬ resolve@1.3.2 </tspan>
<tspan x="10" y="1498">    └── path-parse@1.0.5</tspan>
</text>
</svg>
